<svg width="24" height="20" viewBox="0 0 24 20" fill="none" xmlns="http://www.w3.org/2000/svg">
<path fill-rule="evenodd" clip-rule="evenodd" d="M3.25142 14.4999H2.35142L2.31392 14.4988C2.17626 14.4919 2.04319 14.4471 1.92938 14.3693C1.81557 14.2916 1.72544 14.1839 1.66892 14.0582C1.65392 14.0342 1.63892 14.0087 1.62017 13.9817C0.558916 12.1187 0.397666 8.16693 1.62017 6.01818C1.63517 5.99718 1.69892 5.88168 1.69892 5.88168L1.73642 5.82843C1.87517 5.62331 2.10392 5.49993 2.35142 5.49993H5.15642C10.1702 5.49993 15.0714 3.99093 19.2189 1.16906C19.5977 0.911807 19.8302 0.754682 19.8302 0.754682C20.0589 0.598682 20.3552 0.582182 20.5989 0.711932C20.7199 0.775307 20.8213 0.870591 20.892 0.987461C20.9628 1.10433 21.0002 1.23833 21.0002 1.37493V7.11468L22.6239 7.38506C22.9839 7.44543 23.2502 7.75818 23.2502 8.12493V11.8749C23.2502 12.2417 22.9839 12.5544 22.6239 12.6148L21.0002 12.8852V18.6249C21.0002 18.9028 20.8464 19.1578 20.5989 19.2879C20.3552 19.4177 20.0589 19.4012 19.8302 19.2452C19.8302 19.2452 19.5977 19.0881 19.2189 18.8308C15.991 16.6344 12.2935 15.2245 8.42267 14.7141L7.77392 17.5198C7.65246 18.0474 7.35562 18.5181 6.93193 18.8551C6.50824 19.1921 5.98277 19.3753 5.44142 19.3749H3.37517C3.15767 19.3749 2.94767 19.2793 2.80517 19.1132C2.66267 18.9471 2.59892 18.7273 2.63267 18.5109L3.25142 14.4999ZM4.77017 14.4999L4.24892 17.8749H5.44142C5.85767 17.8749 6.22142 17.5877 6.31517 17.1827L6.91892 14.5622C6.33233 14.5208 5.74446 14.5 5.15642 14.4999H4.77017ZM19.5002 17.2183V2.78156C15.223 5.53552 10.2435 6.99996 5.15642 6.99993H2.79392C2.10767 8.33268 1.99517 11.4542 2.79392 12.9999H5.15642C10.2489 12.9999 15.2252 14.4666 19.5002 17.2183ZM21.0002 8.63531L21.7502 8.76018V11.2397L21.0002 11.3646V8.63531Z" fill="black"/>
</svg>
