<svg width="26" height="27" viewBox="0 0 26 27" fill="none" xmlns="http://www.w3.org/2000/svg">
<g clip-path="url(#clip0_2471_10886)">
<path fill-rule="evenodd" clip-rule="evenodd" d="M2.41995 22.2915H1.83244C0.836652 22.2915 0.0280762 21.5278 0.0280762 20.5888L0.0280762 16.276C0.0280762 13.2687 3.80508 8.75785 5.60845 8.75686L9.38445 8.75586C9.4671 8.75586 9.54975 8.76183 9.63041 8.77279C9.68916 8.76283 9.74991 8.75586 9.81165 8.75586L24.5253 8.75984C25.085 8.75984 25.54 9.21392 25.54 9.77255V21.2738C25.54 21.8335 25.085 22.2876 24.5253 22.2876H23.9438V22.2915C23.9427 23.3478 23.5224 24.3604 22.7752 25.1069C22.0279 25.8534 21.0149 26.2727 19.9587 26.2727C18.9023 26.2729 17.889 25.8537 17.1415 25.1072C16.3941 24.3607 15.9736 23.3479 15.9726 22.2915V22.2866L10.3912 22.2846V22.2915C10.3901 23.3476 9.96995 24.3601 9.22292 25.1065C8.47589 25.853 7.46312 26.2724 6.40706 26.2727C5.35066 26.2729 4.33738 25.8537 3.58992 25.1072C2.84246 24.3607 2.422 23.3479 2.42094 22.2915H2.41995ZM8.79694 22.2915C8.79694 21.6573 8.545 21.0491 8.09653 20.6006C7.64806 20.1521 7.0398 19.9002 6.40557 19.9002C5.77134 19.9002 5.16308 20.1521 4.71461 20.6006C4.26614 21.0491 4.0142 21.6573 4.0142 22.2915C4.0142 22.9258 4.26614 23.534 4.71461 23.9825C5.16308 24.431 5.77134 24.6829 6.40557 24.6829C7.0398 24.6829 7.64806 24.431 8.09653 23.9825C8.545 23.534 8.79694 22.9258 8.79694 22.2915ZM22.3496 22.2915C22.3496 21.6573 22.0976 21.0491 21.6491 20.6006C21.2007 20.1521 20.5924 19.9002 19.9582 19.9002C19.3239 19.9002 18.7157 20.1521 18.2672 20.6006C17.8188 21.0491 17.5668 21.6573 17.5668 22.2915C17.5668 22.9258 17.8188 23.534 18.2672 23.9825C18.7157 24.431 19.3239 24.6829 19.9582 24.6829C20.5924 24.6829 21.2007 24.431 21.6491 23.9825C22.0976 23.534 22.3496 22.9258 22.3496 22.2915ZM4.32488 15.4953C4.78792 14.624 5.48198 14.0883 6.5405 13.916C6.72748 13.8859 6.89763 13.7902 7.02045 13.6461C7.14326 13.5019 7.21069 13.3187 7.21066 13.1293V11.1378C7.2104 11.0329 7.18944 10.9291 7.14897 10.8324C7.10851 10.7356 7.04935 10.6478 6.97487 10.574C6.9004 10.5002 6.81208 10.4418 6.71498 10.4022C6.61788 10.3625 6.51392 10.3425 6.40905 10.3431L5.40531 10.3491C5.24797 10.3491 5.10657 10.382 4.99006 10.4208C4.59175 10.5562 4.2024 10.8649 3.88674 11.1647C3.5191 11.5188 3.18261 11.9039 2.88099 12.3158C2.29348 13.1104 1.67012 14.1938 1.62631 15.0841C1.62132 15.1918 1.63827 15.2995 1.67612 15.4005C1.71398 15.5015 1.77196 15.5938 1.84654 15.6717C1.92112 15.7496 2.01076 15.8116 2.11001 15.8539C2.20926 15.8961 2.31606 15.9178 2.42393 15.9175H3.62086C3.76538 15.9178 3.90725 15.8787 4.03126 15.8045C4.15528 15.7303 4.25678 15.6228 4.32488 15.4953ZM18.3634 14.1311V11.3409C18.3632 11.0775 18.2583 10.825 18.072 10.6388C17.8857 10.4527 17.633 10.3481 17.3696 10.3481H15.3731C15.1097 10.3481 14.8571 10.4527 14.6707 10.6388C14.4844 10.825 14.3796 11.0775 14.3793 11.3409V14.1311C14.3793 14.6788 14.8244 15.1239 15.3731 15.1239H17.3696C17.9183 15.1239 18.3634 14.6788 18.3634 14.1311ZM23.9458 14.1311V11.3409C23.9455 11.0775 23.8407 10.825 23.6544 10.6388C23.468 10.4527 23.2154 10.3481 22.952 10.3481H20.9545C20.6911 10.3481 20.4384 10.4527 20.2521 10.6388C20.0658 10.825 19.9609 11.0775 19.9607 11.3409V14.1311C19.9607 14.6788 20.4058 15.1239 20.9545 15.1239H22.952C23.4997 15.1239 23.9458 14.6788 23.9458 14.1311ZM12.7831 14.1311V11.3399C12.7828 11.0765 12.678 10.824 12.4916 10.6378C12.3053 10.4517 12.0527 10.3471 11.7893 10.3471H9.79273C9.52933 10.3471 9.2767 10.4517 9.09036 10.6378C8.90402 10.824 8.7992 11.0765 8.79893 11.3399V14.1301C8.79893 14.6778 9.24405 15.1229 9.79273 15.1229H11.7893C12.3379 15.1229 12.7831 14.6788 12.7831 14.1311Z" fill="white"/>
</g>
<defs>
<clipPath id="clip0_2471_10886">
<rect width="25.492" height="25.492" fill="white" transform="translate(0.0288086 0.779297)"/>
</clipPath>
</defs>
</svg>
