<svg width="20" height="20" viewBox="0 0 20 20" fill="none" xmlns="http://www.w3.org/2000/svg">
<g clip-path="url(#clip0_1127_6024)">
<path d="M4.88739 4.75656H5.17353C5.60837 4.75656 5.96086 4.40394 5.96086 3.96922V0.983805C5.96086 0.549081 5.60837 0.196509 5.17353 0.196509H4.88739C4.45259 0.196509 4.1001 0.549081 4.1001 0.983805V3.96922C4.1001 4.40394 4.45259 4.75656 4.88739 4.75656ZM14.9861 4.73705H15.2722C15.707 4.73705 16.0595 4.38448 16.0595 3.94971V0.964257C16.0595 0.529574 15.707 0.177002 15.2722 0.177002H14.9861C14.5512 0.177002 14.1987 0.529574 14.1987 0.964257V3.94967C14.1988 4.38448 14.5513 4.73705 14.9861 4.73705Z" fill="#C01824"/>
<path d="M18.7201 1.79639H16.6994V4.15576C16.6994 4.94281 16.0591 5.37691 15.2722 5.37691H14.986C14.199 5.37691 13.5587 4.7366 13.5587 3.94955V1.79639H6.60079V3.96906C6.60079 4.75611 5.96052 5.39642 5.17347 5.39642H4.88734C4.10033 5.39642 3.46006 4.75611 3.46006 3.96906V1.79639H1.27996C0.574202 1.79639 0 2.37059 0 3.07639V18.5431C0 19.2489 0.574202 19.8231 1.27996 19.8231H18.7201C19.4258 19.8231 20 19.2489 20 18.5431V3.07639C20.0001 2.37063 19.4258 1.79639 18.7201 1.79639ZM18.7201 18.5431H1.28001L1.27996 6.86304H18.7203L18.721 18.5431L18.7201 18.5431Z" fill="#C01824"/>
<path d="M10.6608 10.781H12.9591C13.0029 10.781 13.0448 10.7636 13.0757 10.7326C13.1067 10.7017 13.1241 10.6598 13.1241 10.616V8.6259C13.1241 8.58215 13.1067 8.54019 13.0757 8.50925C13.0448 8.47832 13.0029 8.46094 12.9591 8.46094H10.6608C10.6171 8.46094 10.5751 8.47832 10.5442 8.50925C10.5133 8.54019 10.4959 8.58215 10.4959 8.6259V10.616C10.4959 10.6598 10.5133 10.7017 10.5442 10.7326C10.5751 10.7636 10.6171 10.781 10.6608 10.781ZM14.4115 10.781H16.7098C16.7535 10.781 16.7955 10.7636 16.8264 10.7326C16.8574 10.7017 16.8748 10.6598 16.8748 10.616V8.6259C16.8748 8.58215 16.8574 8.54019 16.8264 8.50925C16.7955 8.47832 16.7535 8.46094 16.7098 8.46094H14.4115C14.3678 8.46094 14.3258 8.47832 14.2949 8.50925C14.2639 8.54019 14.2466 8.58215 14.2466 8.6259V10.616C14.2466 10.6598 14.2639 10.7017 14.2949 10.7326C14.3258 10.7636 14.3678 10.781 14.4115 10.781ZM3.15959 14.039H5.45781C5.50156 14.039 5.54352 14.0216 5.57445 13.9907C5.60539 13.9598 5.62277 13.9178 5.62277 13.8741V11.8839C5.62277 11.8402 5.60539 11.7982 5.57445 11.7673C5.54352 11.7363 5.50156 11.719 5.45781 11.719H3.15959C3.11584 11.719 3.07388 11.7363 3.04295 11.7673C3.01201 11.7982 2.99463 11.8402 2.99463 11.8839V13.8741C2.99463 13.9178 3.01201 13.9598 3.04295 13.9907C3.07388 14.0216 3.11584 14.039 3.15959 14.039ZM6.91024 14.039H9.20845C9.2522 14.039 9.29416 14.0216 9.3251 13.9907C9.35604 13.9598 9.37342 13.9178 9.37342 13.8741V11.8839C9.37342 11.8402 9.35604 11.7982 9.3251 11.7673C9.29416 11.7363 9.2522 11.719 9.20845 11.719H6.91024C6.86649 11.719 6.82453 11.7363 6.79359 11.7673C6.76266 11.7982 6.74528 11.8402 6.74528 11.8839V13.8741C6.74528 13.9178 6.76266 13.9598 6.79359 13.9907C6.82453 14.0216 6.86649 14.039 6.91024 14.039ZM10.6609 14.039H12.9591C13.0029 14.039 13.0448 14.0216 13.0757 13.9907C13.1067 13.9598 13.1241 13.9178 13.1241 13.8741V11.8839C13.1241 11.8402 13.1067 11.7982 13.0757 11.7673C13.0448 11.7363 13.0029 11.719 12.9591 11.719H10.6609C10.6171 11.719 10.5752 11.7363 10.5442 11.7673C10.5133 11.7982 10.4959 11.8402 10.4959 11.8839V13.8741C10.4959 13.9178 10.5133 13.9598 10.5442 13.9907C10.5752 14.0216 10.6171 14.039 10.6609 14.039ZM14.4115 14.039H16.7098C16.7535 14.039 16.7955 14.0216 16.8264 13.9907C16.8574 13.9598 16.8748 13.9178 16.8748 13.8741V11.8839C16.8748 11.8402 16.8574 11.7982 16.8264 11.7673C16.7955 11.7363 16.7535 11.719 16.7098 11.719H14.4115C14.3678 11.719 14.3258 11.7363 14.2949 11.7673C14.2639 11.7982 14.2466 11.8402 14.2466 11.8839V13.8741C14.2466 13.9178 14.2639 13.9598 14.2949 13.9907C14.3258 14.0216 14.3678 14.039 14.4115 14.039ZM5.45781 14.977H3.15964C3.11588 14.977 3.07392 14.9944 3.04299 15.0253C3.01205 15.0563 2.99467 15.0982 2.99467 15.142V17.1321C2.99467 17.1759 3.01205 17.2178 3.04299 17.2488C3.07392 17.2797 3.11588 17.2971 3.15964 17.2971H5.45785C5.5016 17.2971 5.54356 17.2797 5.57449 17.2488C5.60543 17.2178 5.62281 17.1759 5.62281 17.1321V15.142C5.62279 15.0982 5.6054 15.0563 5.57446 15.0253C5.54351 14.9944 5.50156 14.977 5.45781 14.977ZM9.20849 14.977H6.91028C6.86653 14.977 6.82457 14.9944 6.79363 15.0253C6.7627 15.0563 6.74532 15.0982 6.74532 15.142V17.1321C6.74532 17.1759 6.7627 17.2178 6.79363 17.2488C6.82457 17.2797 6.86653 17.2971 6.91028 17.2971H9.20849C9.25224 17.2971 9.2942 17.2797 9.32514 17.2488C9.35608 17.2178 9.37346 17.1759 9.37346 17.1321V15.142C9.37346 15.0982 9.35608 15.0563 9.32514 15.0253C9.2942 14.9944 9.25224 14.977 9.20849 14.977ZM12.9592 14.977H10.6609C10.6172 14.977 10.5752 14.9944 10.5443 15.0253C10.5133 15.0563 10.496 15.0982 10.496 15.142V17.1321C10.496 17.1759 10.5133 17.2178 10.5443 17.2488C10.5752 17.2797 10.6172 17.2971 10.6609 17.2971H12.9592C13.0029 17.2971 13.0449 17.2797 13.0758 17.2488C13.1068 17.2178 13.1241 17.1759 13.1241 17.1321V15.142C13.1241 15.0982 13.1068 15.0563 13.0758 15.0253C13.0449 14.9944 13.0029 14.977 12.9592 14.977ZM16.7098 14.977H14.4115C14.3678 14.977 14.3258 14.9944 14.2949 15.0253C14.2639 15.0563 14.2466 15.0982 14.2466 15.142V17.1321C14.2466 17.1759 14.2639 17.2178 14.2949 17.2488C14.3258 17.2797 14.3678 17.2971 14.4115 17.2971H16.7098C16.7535 17.2971 16.7955 17.2797 16.8264 17.2488C16.8574 17.2178 16.8748 17.1759 16.8748 17.1321V15.142C16.8748 15.0982 16.8574 15.0563 16.8264 15.0253C16.7955 14.9944 16.7535 14.977 16.7098 14.977Z" fill="#C01824"/>
</g>
<defs>
<clipPath id="clip0_1127_6024">
<rect width="20" height="20" fill="white"/>
</clipPath>
</defs>
</svg>
