<svg width="28" height="28" viewBox="0 0 28 28" fill="none" xmlns="http://www.w3.org/2000/svg">
<path d="M6.3 9.31836H25.2C25.5062 9.31836 25.8125 9.40586 26.1187 9.53711V7.52461C26.1187 5.55586 24.5437 3.93711 22.575 3.84961V5.86211C22.575 6.34336 22.1812 6.73711 21.7 6.73711C21.2187 6.73711 20.825 6.29961 20.825 5.86211V3.84961H10.0187V5.77461C10.0187 6.25586 9.625 6.64961 9.14375 6.64961C8.6625 6.64961 8.26875 6.21211 8.26875 5.77461V3.84961C6.25625 3.84961 4.59375 5.51211 4.59375 7.52461V10.4559C4.85625 9.75586 5.5125 9.31836 6.3 9.31836ZM24.3687 20.9559C23.7562 22.1809 22.5312 22.9246 21.2187 22.9246H4.8125C5.3375 24.3684 6.69375 25.3746 8.26875 25.3746H22.4437C24.4562 25.3746 26.1187 23.7121 26.1187 21.6996V16.4059C25.9875 16.8871 25.8125 17.4121 25.6375 17.8934C25.2875 18.8996 24.85 19.9496 24.3687 20.9559Z" fill="white"/>
<path d="M25.2 11.0684H6.29995C6.21245 11.0684 6.1687 11.1121 6.1687 11.1996C5.9062 13.3434 5.3812 15.4434 4.6812 17.4559C4.3312 18.3746 3.93745 19.3371 3.49995 20.2559C3.32495 20.6496 3.58745 21.1746 4.0687 21.1746H21.2625C21.9187 21.1746 22.5312 20.7809 22.8375 20.2121C23.275 19.2934 23.6687 18.2871 24.0187 17.3246C24.7187 15.3559 25.1562 13.2996 25.375 11.2434C25.375 11.1996 25.375 11.1559 25.3312 11.1121C25.2875 11.0684 25.2437 11.0684 25.2 11.0684ZM18.55 14.6121L14.9625 18.1996C14.6125 18.5496 14.0437 18.5496 13.7375 18.1996L11.2437 15.7059C10.4562 14.9184 11.6812 13.6496 12.4687 14.4809L14.35 16.3621L17.325 13.3871C18.1125 12.5996 19.3375 13.8246 18.55 14.6121Z" fill="white"/>
</svg>
