<svg width="20" height="20" viewBox="0 0 20 20" fill="none" xmlns="http://www.w3.org/2000/svg">
<g clip-path="url(#clip0_2173_14858)">
<path d="M4.88739 4.75643H5.17353C5.60837 4.75643 5.96086 4.40382 5.96086 3.9691V0.983683C5.96086 0.548959 5.60837 0.196387 5.17353 0.196387H4.88739C4.45259 0.196387 4.1001 0.548959 4.1001 0.983683V3.9691C4.1001 4.40382 4.45259 4.75643 4.88739 4.75643ZM14.9861 4.73693H15.2722C15.707 4.73693 16.0595 4.38436 16.0595 3.94959V0.964135C16.0595 0.529452 15.707 0.17688 15.2722 0.17688H14.9861C14.5512 0.17688 14.1987 0.529452 14.1987 0.964135V3.94955C14.1988 4.38436 14.5513 4.73693 14.9861 4.73693Z" fill="#808080"/>
<path d="M18.7201 1.79639H16.6994V4.15576C16.6994 4.94281 16.0591 5.37691 15.2722 5.37691H14.986C14.199 5.37691 13.5587 4.7366 13.5587 3.94955V1.79639H6.60079V3.96906C6.60079 4.75611 5.96052 5.39642 5.17347 5.39642H4.88734C4.10033 5.39642 3.46006 4.75611 3.46006 3.96906V1.79639H1.27996C0.574202 1.79639 0 2.37059 0 3.07639V18.5431C0 19.2489 0.574202 19.8231 1.27996 19.8231H18.7201C19.4258 19.8231 20 19.2489 20 18.5431V3.07639C20.0001 2.37063 19.4258 1.79639 18.7201 1.79639ZM18.7201 18.5431H1.28001L1.27996 6.86304H18.7203L18.721 18.5431L18.7201 18.5431Z" fill="#808080"/>
<path d="M10.6608 10.7809H12.9591C13.0029 10.7809 13.0448 10.7635 13.0757 10.7326C13.1067 10.7017 13.1241 10.6597 13.1241 10.6159V8.62584C13.1241 8.58209 13.1067 8.54013 13.0757 8.50919C13.0448 8.47826 13.0029 8.46088 12.9591 8.46088H10.6608C10.6171 8.46088 10.5751 8.47826 10.5442 8.50919C10.5133 8.54013 10.4959 8.58209 10.4959 8.62584V10.6159C10.4959 10.6597 10.5133 10.7017 10.5442 10.7326C10.5751 10.7635 10.6171 10.7809 10.6608 10.7809ZM14.4115 10.7809H16.7098C16.7535 10.7809 16.7955 10.7635 16.8264 10.7326C16.8574 10.7017 16.8748 10.6597 16.8748 10.6159V8.62584C16.8748 8.58209 16.8574 8.54013 16.8264 8.50919C16.7955 8.47826 16.7535 8.46088 16.7098 8.46088H14.4115C14.3678 8.46088 14.3258 8.47826 14.2949 8.50919C14.2639 8.54013 14.2466 8.58209 14.2466 8.62584V10.6159C14.2466 10.6597 14.2639 10.7017 14.2949 10.7326C14.3258 10.7635 14.3678 10.7809 14.4115 10.7809ZM3.15959 14.039H5.45781C5.50156 14.039 5.54352 14.0216 5.57445 13.9906C5.60539 13.9597 5.62277 13.9178 5.62277 13.874V11.8839C5.62277 11.8401 5.60539 11.7981 5.57445 11.7672C5.54352 11.7363 5.50156 11.7189 5.45781 11.7189H3.15959C3.11584 11.7189 3.07388 11.7363 3.04295 11.7672C3.01201 11.7981 2.99463 11.8401 2.99463 11.8839V13.874C2.99463 13.9178 3.01201 13.9597 3.04295 13.9906C3.07388 14.0216 3.11584 14.039 3.15959 14.039ZM6.91024 14.039H9.20845C9.2522 14.039 9.29416 14.0216 9.3251 13.9906C9.35604 13.9597 9.37342 13.9178 9.37342 13.874V11.8839C9.37342 11.8401 9.35604 11.7981 9.3251 11.7672C9.29416 11.7363 9.2522 11.7189 9.20845 11.7189H6.91024C6.86649 11.7189 6.82453 11.7363 6.79359 11.7672C6.76266 11.7981 6.74528 11.8401 6.74528 11.8839V13.874C6.74528 13.9178 6.76266 13.9597 6.79359 13.9906C6.82453 14.0216 6.86649 14.039 6.91024 14.039ZM10.6609 14.039H12.9591C13.0029 14.039 13.0448 14.0216 13.0757 13.9906C13.1067 13.9597 13.1241 13.9178 13.1241 13.874V11.8839C13.1241 11.8401 13.1067 11.7981 13.0757 11.7672C13.0448 11.7363 13.0029 11.7189 12.9591 11.7189H10.6609C10.6171 11.7189 10.5752 11.7363 10.5442 11.7672C10.5133 11.7981 10.4959 11.8401 10.4959 11.8839V13.874C10.4959 13.9178 10.5133 13.9597 10.5442 13.9906C10.5752 14.0216 10.6171 14.039 10.6609 14.039ZM14.4115 14.039H16.7098C16.7535 14.039 16.7955 14.0216 16.8264 13.9906C16.8574 13.9597 16.8748 13.9178 16.8748 13.874V11.8839C16.8748 11.8401 16.8574 11.7981 16.8264 11.7672C16.7955 11.7363 16.7535 11.7189 16.7098 11.7189H14.4115C14.3678 11.7189 14.3258 11.7363 14.2949 11.7672C14.2639 11.7981 14.2466 11.8401 14.2466 11.8839V13.874C14.2466 13.9178 14.2639 13.9597 14.2949 13.9906C14.3258 14.0216 14.3678 14.039 14.4115 14.039ZM5.45781 14.977H3.15964C3.11588 14.977 3.07392 14.9943 3.04299 15.0253C3.01205 15.0562 2.99467 15.0982 2.99467 15.1419V17.1321C2.99467 17.1758 3.01205 17.2178 3.04299 17.2487C3.07392 17.2796 3.11588 17.297 3.15964 17.297H5.45785C5.5016 17.297 5.54356 17.2796 5.57449 17.2487C5.60543 17.2178 5.62281 17.1758 5.62281 17.1321V15.1419C5.62279 15.0982 5.6054 15.0562 5.57446 15.0253C5.54351 14.9944 5.50156 14.977 5.45781 14.977ZM9.20849 14.977H6.91028C6.86653 14.977 6.82457 14.9943 6.79363 15.0253C6.7627 15.0562 6.74532 15.0982 6.74532 15.1419V17.1321C6.74532 17.1758 6.7627 17.2178 6.79363 17.2487C6.82457 17.2796 6.86653 17.297 6.91028 17.297H9.20849C9.25224 17.297 9.2942 17.2796 9.32514 17.2487C9.35608 17.2178 9.37346 17.1758 9.37346 17.1321V15.1419C9.37346 15.0982 9.35608 15.0562 9.32514 15.0253C9.2942 14.9943 9.25224 14.977 9.20849 14.977ZM12.9592 14.977H10.6609C10.6172 14.977 10.5752 14.9943 10.5443 15.0253C10.5133 15.0562 10.496 15.0982 10.496 15.1419V17.1321C10.496 17.1758 10.5133 17.2178 10.5443 17.2487C10.5752 17.2796 10.6172 17.297 10.6609 17.297H12.9592C13.0029 17.297 13.0449 17.2796 13.0758 17.2487C13.1068 17.2178 13.1241 17.1758 13.1241 17.1321V15.1419C13.1241 15.0982 13.1068 15.0562 13.0758 15.0253C13.0449 14.9943 13.0029 14.977 12.9592 14.977ZM16.7098 14.977H14.4115C14.3678 14.977 14.3258 14.9943 14.2949 15.0253C14.2639 15.0562 14.2466 15.0982 14.2466 15.1419V17.1321C14.2466 17.1758 14.2639 17.2178 14.2949 17.2487C14.3258 17.2796 14.3678 17.297 14.4115 17.297H16.7098C16.7535 17.297 16.7955 17.2796 16.8264 17.2487C16.8574 17.2178 16.8748 17.1758 16.8748 17.1321V15.1419C16.8748 15.0982 16.8574 15.0562 16.8264 15.0253C16.7955 14.9943 16.7535 14.977 16.7098 14.977Z" fill="#808080"/>
</g>
<defs>
<clipPath id="clip0_2173_14858">
<rect width="20" height="20" fill="white"/>
</clipPath>
</defs>
</svg>
