<svg width="21" height="21" viewBox="0 0 21 21" fill="none" xmlns="http://www.w3.org/2000/svg">
<path d="M3.53111 19.864L10.5002 12.8949L17.4692 19.864C17.788 20.1828 18.1941 20.3382 18.6668 20.3382C19.1396 20.3382 19.5456 20.1828 19.8644 19.864C20.1833 19.5451 20.3387 19.1391 20.3387 18.6663C20.3387 18.1936 20.1833 17.7876 19.8644 17.4687L12.8954 10.4997L19.8644 3.53062C20.1833 3.21179 20.3387 2.80573 20.3387 2.33301C20.3387 1.86028 20.1833 1.45422 19.8644 1.1354C19.5456 0.816571 19.1396 0.661133 18.6668 0.661133C18.1941 0.661133 17.788 0.816571 17.4692 1.1354L10.5002 8.10445L3.53111 1.1354C3.21228 0.816571 2.80622 0.661133 2.3335 0.661133C1.86077 0.661133 1.45471 0.816571 1.13589 1.1354C0.81706 1.45422 0.661621 1.86028 0.661621 2.33301C0.661621 2.80573 0.81706 3.21179 1.13589 3.53062L8.10494 10.4997L1.13589 17.4687C0.81706 17.7876 0.661621 18.1936 0.661621 18.6663C0.661621 19.1391 0.81706 19.5451 1.13589 19.864C1.45471 20.1828 1.86077 20.3382 2.3335 20.3382C2.80622 20.3382 3.21228 20.1828 3.53111 19.864Z" fill="#1C1B1F" stroke="black" stroke-width="0.5"/>
</svg>
