<svg width="21" height="21" viewBox="0 0 21 21" fill="none" xmlns="http://www.w3.org/2000/svg">
<path d="M1.88344 18.7425C1.5585 18.7408 1.24736 18.6109 1.01759 18.3812C0.78782 18.1514 0.657974 17.8403 0.65625 17.5153V7.4222C0.657982 6.74916 0.926112 6.10419 1.40202 5.62828C1.87793 5.15237 2.5229 4.88424 3.19594 4.88251H15.1725C15.8467 4.88251 16.4933 5.14987 16.9707 5.62596C17.448 6.10206 17.717 6.74803 17.7188 7.4222V14.1488C17.7188 14.8229 17.4514 15.4696 16.9753 15.9469C16.4992 16.4242 15.8532 16.6933 15.1791 16.695H5.19094C5.07749 16.6959 4.96724 16.7327 4.87594 16.8L2.625 18.4997C2.41037 18.6583 2.15031 18.7435 1.88344 18.7425ZM3.19594 6.19501C2.871 6.19673 2.55986 6.32658 2.33009 6.55635C2.10032 6.78612 1.97047 7.09726 1.96875 7.4222V17.3513L4.08844 15.75C4.40738 15.5131 4.79366 15.3844 5.19094 15.3825H15.1725C15.4997 15.3825 15.8135 15.2525 16.0449 15.0212C16.2763 14.7898 16.4062 14.476 16.4062 14.1488V7.4222C16.4045 7.09726 16.2747 6.78612 16.0449 6.55635C15.8151 6.32658 15.504 6.19673 15.1791 6.19501H3.19594Z" fill="black"/>
<path d="M11.7729 11.5041C12.1354 11.5041 12.4292 11.2103 12.4292 10.8478C12.4292 10.4854 12.1354 10.1916 11.7729 10.1916C11.4105 10.1916 11.1167 10.4854 11.1167 10.8478C11.1167 11.2103 11.4105 11.5041 11.7729 11.5041Z" fill="black"/>
<path d="M9.22705 11.5041C9.58949 11.5041 9.8833 11.2103 9.8833 10.8478C9.8833 10.4854 9.58949 10.1916 9.22705 10.1916C8.86461 10.1916 8.5708 10.4854 8.5708 10.8478C8.5708 11.2103 8.86461 11.5041 9.22705 11.5041Z" fill="black"/>
<path d="M6.60205 11.5041C6.96449 11.5041 7.2583 11.2103 7.2583 10.8478C7.2583 10.4854 6.96449 10.1916 6.60205 10.1916C6.23961 10.1916 5.9458 10.4854 5.9458 10.8478C5.9458 11.2103 6.23961 11.5041 6.60205 11.5041Z" fill="black"/>
<path d="M19.6875 12.1013C19.5135 12.1013 19.3465 12.0321 19.2235 11.909C19.1004 11.786 19.0312 11.6191 19.0312 11.445V4.79719C19.0295 4.47226 18.8997 4.16112 18.6699 3.93135C18.4401 3.70158 18.129 3.57173 17.8041 3.57001H4.59375C4.4197 3.57001 4.25278 3.50087 4.12971 3.3778C4.00664 3.25473 3.9375 3.08781 3.9375 2.91376C3.9375 2.73971 4.00664 2.57279 4.12971 2.44972C4.25278 2.32665 4.4197 2.25751 4.59375 2.25751H17.8041C18.4771 2.25924 19.1221 2.52737 19.598 3.00328C20.0739 3.47919 20.342 4.12416 20.3438 4.79719V11.445C20.3438 11.6191 20.2746 11.786 20.1515 11.909C20.0285 12.0321 19.8615 12.1013 19.6875 12.1013Z" fill="black"/>
</svg>
