<svg width="21" height="21" viewBox="0 0 21 21" fill="none" xmlns="http://www.w3.org/2000/svg">
<g clip-path="url(#clip0_5027_1199)">
<path d="M8.0937 7.00005H1.5312C0.686848 7.00005 0 6.31321 0 5.4687V1.5312C0 0.686848 0.686848 0 1.5312 0H8.0937C8.93821 0 9.62505 0.686848 9.62505 1.5312V5.4687C9.62505 6.31321 8.93821 7.00005 8.0937 7.00005ZM1.5312 1.3125C1.47321 1.31254 1.41761 1.3356 1.3766 1.3766C1.3356 1.41761 1.31254 1.47321 1.3125 1.5312V5.4687C1.31251 5.52671 1.33555 5.58235 1.37656 5.62338C1.41756 5.66442 1.47318 5.6875 1.5312 5.68755H8.0937C8.15173 5.68753 8.20739 5.66447 8.24843 5.62343C8.28947 5.58239 8.31253 5.52673 8.31255 5.4687V1.5312C8.3125 1.47318 8.28942 1.41756 8.24838 1.37656C8.20735 1.33555 8.15171 1.31251 8.0937 1.3125H1.5312ZM8.0937 21H1.5312C0.686848 21 0 20.3132 0 19.4688V10.2813C0 9.43679 0.686848 8.74995 1.5312 8.74995H8.0937C8.93821 8.74995 9.62505 9.43679 9.62505 10.2813V19.4688C9.62505 20.3132 8.93821 21 8.0937 21ZM1.5312 10.0624C1.47318 10.0625 1.41756 10.0856 1.37656 10.1266C1.33555 10.1677 1.31251 10.2233 1.3125 10.2813V19.4688C1.31254 19.5268 1.3356 19.5824 1.3766 19.6234C1.41761 19.6644 1.47321 19.6875 1.5312 19.6875H8.0937C8.15171 19.6875 8.20735 19.6644 8.24838 19.6234C8.28942 19.5824 8.3125 19.5268 8.31255 19.4688V10.2813C8.31253 10.2233 8.28947 10.1676 8.24843 10.1266C8.20739 10.0855 8.15173 10.0625 8.0937 10.0624H1.5312ZM19.4688 21H12.9063C12.0618 21 11.3749 20.3132 11.3749 19.4688V15.5313C11.3749 14.6868 12.0618 13.9999 12.9063 13.9999H19.4688C20.3132 13.9999 21 14.6868 21 15.5313V19.4688C21 20.3132 20.3132 21 19.4688 21ZM12.9063 15.3124C12.8483 15.3125 12.7926 15.3355 12.7516 15.3766C12.7105 15.4176 12.6875 15.4733 12.6874 15.5313V19.4688C12.6875 19.5268 12.7106 19.5824 12.7516 19.6234C12.7927 19.6644 12.8483 19.6875 12.9063 19.6875H19.4688C19.5268 19.6875 19.5824 19.6644 19.6234 19.6234C19.6644 19.5824 19.6875 19.5268 19.6875 19.4688V15.5313C19.6875 15.4733 19.6644 15.4177 19.6234 15.3766C19.5824 15.3356 19.5268 15.3125 19.4688 15.3124H12.9063ZM19.4688 12.2501H12.9063C12.0618 12.2501 11.3749 11.5632 11.3749 10.7187V1.5312C11.3749 0.686848 12.0618 0 12.9063 0H19.4688C20.3132 0 21 0.686848 21 1.5312V10.7187C21 11.5632 20.3132 12.2501 19.4688 12.2501ZM12.9063 1.3125C12.8483 1.31251 12.7927 1.33555 12.7516 1.37656C12.7106 1.41756 12.6875 1.47318 12.6874 1.5312V10.7187C12.6875 10.7767 12.7105 10.8324 12.7516 10.8734C12.7926 10.9145 12.8483 10.9375 12.9063 10.9376H19.4688C19.5268 10.9375 19.5824 10.9144 19.6234 10.8734C19.6644 10.8323 19.6875 10.7767 19.6875 10.7187V1.5312C19.6875 1.47321 19.6644 1.41761 19.6234 1.3766C19.5824 1.3356 19.5268 1.31254 19.4688 1.3125H12.9063Z" fill="black"/>
</g>
<defs>
<clipPath id="clip0_5027_1199">
<rect width="21" height="21" fill="white"/>
</clipPath>
</defs>
</svg>
