<svg width="16" height="16" viewBox="0 0 16 16" fill="none" xmlns="http://www.w3.org/2000/svg">
<g clip-path="url(#clip0_3285_928)">
<path d="M2.33333 16.0002H12.3333C12.9531 15.9984 13.5469 15.7508 13.9844 15.3117C14.4218 14.8727 14.6672 14.278 14.6667 13.6582V8.6335C14.6667 8.45669 14.5964 8.28712 14.4714 8.16209C14.3464 8.03707 14.1768 7.96683 14 7.96683C13.8232 7.96683 13.6536 8.03707 13.5286 8.16209C13.4036 8.28712 13.3333 8.45669 13.3333 8.6335V13.6582C13.3342 13.9244 13.2294 14.1802 13.0419 14.3693C12.8545 14.5584 12.5996 14.6654 12.3333 14.6668H2.33333C2.06705 14.6654 1.8122 14.5584 1.62472 14.3693C1.43724 14.1802 1.33245 13.9244 1.33333 13.6582V3.6755C1.33245 3.40921 1.43724 3.15345 1.62472 2.96434C1.8122 2.77524 2.06705 2.66824 2.33333 2.66683H7.33333C7.51015 2.66683 7.67971 2.59659 7.80474 2.47157C7.92976 2.34654 8 2.17697 8 2.00016C8 1.82335 7.92976 1.65378 7.80474 1.52876C7.67971 1.40373 7.51015 1.3335 7.33333 1.3335H2.33333C1.71354 1.33526 1.11976 1.58285 0.682306 2.02193C0.244854 2.461 -0.000531394 3.0557 8.64072e-07 3.6755V13.6582C-0.000531394 14.278 0.244854 14.8727 0.682306 15.3117C1.11976 15.7508 1.71354 15.9984 2.33333 16.0002Z" fill="#C01824"/>
<path d="M6.30349 7.02923L5.77749 9.43857C5.75368 9.54785 5.75775 9.66137 5.78932 9.76866C5.82089 9.87596 5.87895 9.97359 5.95815 10.0526C6.03845 10.1296 6.13611 10.186 6.24288 10.2173C6.34965 10.2485 6.46237 10.2535 6.57149 10.2319L8.97549 9.70457C9.10031 9.67716 9.21463 9.61444 9.30482 9.5239L15.3808 3.4479C15.5666 3.26218 15.7139 3.04169 15.8145 2.79901C15.915 2.55634 15.9667 2.29624 15.9667 2.03357C15.9667 1.7709 15.915 1.5108 15.8145 1.26812C15.7139 1.02545 15.5666 0.804956 15.3808 0.619234C15 0.255325 14.4936 0.0522461 13.9668 0.0522461C13.4401 0.0522461 12.9336 0.255325 12.5528 0.619234L6.48615 6.70123C6.3951 6.79081 6.3317 6.90466 6.30349 7.02923ZM13.4955 1.56257C13.6223 1.44106 13.7912 1.37323 13.9668 1.37323C14.1425 1.37323 14.3113 1.44106 14.4382 1.56257C14.5615 1.68832 14.6306 1.85743 14.6306 2.03357C14.6306 2.2097 14.5615 2.37881 14.4382 2.50457L13.9668 2.9759L13.0242 2.03323L13.4955 1.56257ZM7.56215 7.50523L12.0782 2.9779L13.0115 3.9159L8.49349 8.44457L7.29682 8.70723L7.56215 7.50523Z" fill="#C01824"/>
</g>
<defs>
<clipPath id="clip0_3285_928">
<rect width="16" height="16" fill="white"/>
</clipPath>
</defs>
</svg>
