<svg width="17" height="17" viewBox="0 0 17 17" fill="none" xmlns="http://www.w3.org/2000/svg">
<path d="M8.49992 0.708496C6.95888 0.708496 5.45244 1.16547 4.1711 2.02163C2.88977 2.87779 1.89109 4.09468 1.30136 5.51842C0.711628 6.94216 0.557327 8.50881 0.85797 10.0202C1.15861 11.5317 1.9007 12.92 2.99038 14.0097C4.08007 15.0994 5.46841 15.8415 6.97984 16.1421C8.49128 16.4428 10.0579 16.2885 11.4817 15.6987C12.9054 15.109 14.1223 14.1103 14.9785 12.829C15.8346 11.5476 16.2916 10.0412 16.2916 8.50016C16.2892 6.43443 15.4675 4.45401 14.0068 2.99331C12.5461 1.53262 10.5657 0.710933 8.49992 0.708496ZM8.49992 14.8752C7.23907 14.8752 6.00653 14.5013 4.95816 13.8008C3.9098 13.1003 3.0927 12.1046 2.61019 10.9398C2.12768 9.77489 2.00144 8.49309 2.24742 7.25646C2.4934 6.01983 3.10056 4.88392 3.99212 3.99236C4.88368 3.1008 6.01959 2.49364 7.25622 2.24766C8.49285 2.00168 9.77465 2.12792 10.9395 2.61043C12.1044 3.09294 13.1 3.91004 13.8005 4.9584C14.501 6.00677 14.8749 7.23931 14.8749 8.50016C14.8729 10.1903 14.2005 11.8106 13.0055 13.0057C11.8104 14.2008 10.19 14.8731 8.49992 14.8752ZM12.5636 6.2505C12.6265 6.31905 12.6753 6.39932 12.7071 6.48672C12.739 6.57412 12.7533 6.66694 12.7493 6.75988C12.7453 6.85282 12.723 6.94407 12.6838 7.0284C12.6445 7.11273 12.589 7.18849 12.5204 7.25137L8.27042 11.1472C8.13586 11.2706 7.95886 11.3373 7.77634 11.3333C7.59382 11.3293 7.41988 11.2551 7.2908 11.126L5.1658 9.00095C5.03298 8.86804 4.9584 8.68781 4.95847 8.49991C4.95853 8.31201 5.03324 8.13183 5.16615 7.99902C5.29906 7.8662 5.47929 7.79162 5.66719 7.79169C5.85509 7.79175 6.03527 7.86646 6.16809 7.99937L7.81355 9.64483L11.5635 6.20729C11.7019 6.0805 11.885 6.01383 12.0725 6.02194C12.26 6.03004 12.4367 6.11224 12.5636 6.2505Z" fill="#408235"/>
</svg>
