<svg width="17" height="18" viewBox="0 0 17 18" fill="none" xmlns="http://www.w3.org/2000/svg">
<path d="M8.16063 0C5.3622 0 3.08759 2.27461 3.08759 5.07305C3.08759 7.87148 5.3622 10.1461 8.16063 10.1461C10.9591 10.1461 13.2337 7.87148 13.2337 5.07305C13.2337 2.27461 10.9591 0 8.16063 0ZM8.16063 8.38476C6.33251 8.38476 4.8454 6.89766 4.8454 5.06953C4.8454 3.24141 6.33602 1.75781 8.16063 1.75781C9.98524 1.75781 11.4759 3.24492 11.4759 5.07305C11.4759 6.90117 9.98876 8.38476 8.16063 8.38476ZM16.2466 14.9273C15.7895 13.2434 14.8333 11.7633 13.4798 10.6523C13.1036 10.343 12.5517 10.3992 12.2423 10.7719C11.9329 11.148 11.9891 11.7 12.3618 12.0094C13.4306 12.8918 14.1899 14.059 14.5485 15.3879C14.6224 15.6656 14.5063 15.8695 14.4325 15.9715C14.2989 16.1437 14.0985 16.2457 13.8806 16.2457C13.3954 16.2457 13.0016 16.6395 13.0016 17.1246C13.0016 17.6098 13.3954 18.0035 13.8806 18.0035C14.6505 18.0035 15.3606 17.652 15.8282 17.0402C16.2923 16.432 16.447 15.6621 16.2466 14.9273ZM10.7235 16.2422H2.44423C2.14892 16.2422 1.97665 16.0734 1.89931 15.9715C1.76571 15.7957 1.72352 15.5742 1.78329 15.3633C2.1454 14.0484 2.89774 12.8883 3.95595 12.0164C4.3286 11.707 4.38485 11.1551 4.07548 10.7789C3.7661 10.4027 3.21415 10.35 2.83798 10.6594C1.49852 11.7668 0.54579 13.2293 0.0887586 14.8992C-0.115148 15.6445 0.0360242 16.425 0.503602 17.0402C0.964149 17.6484 1.67431 18 2.44423 18H10.7235C11.2087 18 11.6024 17.6062 11.6024 17.1211C11.6024 16.6359 11.2087 16.2422 10.7235 16.2422Z" fill="#2C2F32"/>
</svg>
