<svg width="28" height="28" viewBox="0 0 28 28" fill="none" xmlns="http://www.w3.org/2000/svg">
<g clip-path="url(#clip0_2468_5016)">
<path d="M21.7139 3.63563V1.44813C21.7139 1.18562 21.6045 0.923125 21.4164 0.739375C21.2326 0.55125 20.9701 0.441875 20.7076 0.441875C20.152 0.441875 19.697 0.8925 19.697 1.4525V3.64437C19.7047 3.90726 19.8146 4.15679 20.0033 4.34C20.192 4.52322 20.4446 4.6257 20.7076 4.6257C20.9706 4.6257 21.2233 4.52322 21.412 4.34C21.6006 4.15679 21.7105 3.90726 21.7182 3.64437L21.7139 3.63563ZM15.0114 3.63563V1.44813C15.0114 1.18562 14.902 0.923125 14.7182 0.739375C14.5345 0.555625 14.2764 0.441875 14.0051 0.441875C13.4495 0.441875 12.9945 0.8925 12.9945 1.4525V3.64437C13.0022 3.90726 13.1121 4.15679 13.3008 4.34C13.4895 4.52322 13.7421 4.6257 14.0051 4.6257C14.2681 4.6257 14.5208 4.52322 14.7095 4.34C14.8981 4.15679 15.008 3.90726 15.0157 3.64437L15.0114 3.63563ZM8.30887 3.63563V1.44813C8.30887 0.8925 7.85824 0.4375 7.29824 0.4375C7.03574 0.4375 6.77324 0.546875 6.58949 0.735C6.40137 0.91875 6.29199 1.18125 6.29199 1.44375V3.63563C6.29973 3.89851 6.4096 4.14804 6.59828 4.33125C6.78697 4.51447 7.03962 4.61695 7.30262 4.61695C7.56562 4.61695 7.81827 4.51447 8.00695 4.33125C8.19564 4.14804 8.30551 3.89851 8.31324 3.63563H8.30887ZM13.3795 17.5306L12.8764 19.1581H13.887L13.3795 17.5306Z" fill="white"/>
<path d="M0.849609 24.9855C0.849609 26.4074 2.00461 27.5624 3.42648 27.5624H24.5796C26.0015 27.5624 27.1565 26.4074 27.1565 24.9855V9.38867H0.849609V24.9855ZM17.8246 14.5949C17.8246 14.468 17.9296 14.363 18.0609 14.363H19.9027C19.9902 14.363 20.0646 14.4068 20.1084 14.4812L22.3746 18.4668V14.5949C22.3746 14.468 22.4796 14.363 22.6109 14.363H24.4484C24.5796 14.363 24.6846 14.468 24.6846 14.5949V22.2424C24.6846 22.3737 24.5796 22.4787 24.4484 22.4787H22.6152C22.5321 22.4787 22.4534 22.4349 22.4096 22.3605L20.139 18.3705V22.2424C20.139 22.3737 20.034 22.4787 19.9027 22.4787H18.0609C17.9296 22.4787 17.8246 22.3737 17.8246 22.2424V14.5949ZM9.49023 22.1593L12.2946 14.5162C12.3296 14.4199 12.4171 14.363 12.5177 14.363H14.2459C14.3465 14.363 14.4296 14.4199 14.469 14.5162L17.2909 22.1593C17.3171 22.2337 17.3084 22.3124 17.2646 22.378C17.2252 22.4349 17.1509 22.4787 17.0765 22.4787H15.0946C14.994 22.4787 14.9065 22.4087 14.8715 22.3124L14.4777 21.048H12.2946L11.9052 22.3124C11.8746 22.413 11.7827 22.4787 11.6777 22.4787H9.70898C9.67119 22.4785 9.63398 22.4693 9.60048 22.4518C9.56699 22.4343 9.53818 22.409 9.51648 22.378C9.49705 22.3455 9.48467 22.3091 9.48015 22.2715C9.47563 22.2338 9.47906 22.1956 9.49023 22.1593ZM3.55773 19.6962H5.40398C5.53523 19.6962 5.64023 19.8012 5.64023 19.928C5.64023 20.2999 5.71461 20.4705 5.77148 20.5493C5.85023 20.6455 5.99023 20.6937 6.19148 20.6937C6.37086 20.6937 6.50211 20.6368 6.59398 20.5055C6.70336 20.3568 6.75586 20.1337 6.75586 19.8449V14.5949C6.75586 14.468 6.86086 14.363 6.99211 14.363H8.82961C8.96086 14.363 9.06586 14.468 9.06586 14.5949V19.8449C9.06586 20.3699 8.93898 20.8512 8.69398 21.2668C8.44461 21.6824 8.09461 22.0149 7.65273 22.238C7.21961 22.4699 6.72523 22.5837 6.19148 22.5837C5.30336 22.5837 4.59898 22.3518 4.09148 21.8924C3.58398 21.4287 3.32148 20.768 3.32148 19.9324C3.32148 19.8055 3.42648 19.7005 3.55773 19.7005V19.6962Z" fill="white"/>
<path d="M6.19152 22.1192C6.64652 22.1192 7.0709 22.0186 7.43402 21.8305C7.79715 21.6423 8.0859 21.3755 8.28715 21.0298C8.4884 20.6842 8.58902 20.2861 8.58902 19.8486V14.8348H7.21965V19.8486C7.21965 20.238 7.13652 20.553 6.97027 20.7848C6.7909 21.0342 6.51965 21.1698 6.18715 21.1698C5.8284 21.1698 5.56152 21.0561 5.39527 20.8373C5.27277 20.6798 5.20277 20.4567 5.17652 20.168H3.78965C3.82902 20.763 4.03465 21.2136 4.40215 21.5461C4.81777 21.9223 5.41715 22.1148 6.18715 22.1148L6.19152 22.1192ZM11.8965 20.7455C11.9271 20.6448 12.019 20.5836 12.124 20.5836H14.6484C14.749 20.5836 14.8365 20.6448 14.8715 20.7455L15.2653 22.0098H16.7396L14.084 14.8305H12.6796L10.0459 22.0098H11.5071L11.8965 20.7455ZM12.3384 19.3236L13.1565 16.6723C13.1828 16.5717 13.2746 16.5061 13.3796 16.5061C13.4846 16.5061 13.5721 16.5761 13.6071 16.6723L14.4296 19.3236C14.4471 19.3936 14.4384 19.468 14.3946 19.5336C14.3509 19.5905 14.2809 19.6298 14.2065 19.6298H12.5659C12.4915 19.6298 12.4215 19.5948 12.3821 19.5336C12.3606 19.5036 12.3462 19.4691 12.3402 19.4327C12.3341 19.3963 12.3365 19.3589 12.3471 19.3236H12.3384ZM19.6709 17.4861C19.6709 17.3767 19.7409 17.2848 19.8415 17.2586C19.9465 17.2323 20.0559 17.2761 20.104 17.368L22.7465 22.0055H24.2078V14.8261H22.8428V19.3498C22.8428 19.4548 22.7684 19.5511 22.6678 19.5773C22.6176 19.5899 22.5647 19.5855 22.5173 19.5649C22.4698 19.5444 22.4305 19.5088 22.4053 19.4636L19.7671 14.8261H18.2971V22.0055H19.6709V17.4861ZM24.5753 2.77734H22.1778V3.63922C22.1778 4.45297 21.5171 5.11797 20.7034 5.11797C19.8896 5.11797 19.2246 4.45297 19.2246 3.63922V2.77734H15.484V3.63922C15.484 4.45297 14.819 5.11797 14.0053 5.11797C13.1915 5.11797 12.5265 4.45297 12.5265 3.63922V2.77734H8.7859V3.63922C8.7859 4.45297 8.1209 5.11797 7.30715 5.11797C6.4934 5.11797 5.83277 4.45297 5.83277 3.63922V2.77734H3.43527C2.0134 2.77734 0.858398 3.93234 0.858398 5.34984V8.92422H27.1609V5.34984C27.1609 3.93234 26.0059 2.77734 24.584 2.77734H24.5753Z" fill="white"/>
</g>
<defs>
<clipPath id="clip0_2468_5016">
<rect width="28" height="28" fill="white" transform="translate(0.000976562)"/>
</clipPath>
</defs>
</svg>
