<svg width="20" height="21" viewBox="0 0 20 21" fill="none" xmlns="http://www.w3.org/2000/svg">
<path d="M9.98942 0.935856C9.72445 0.938859 9.47146 1.04714 9.28586 1.23699C9.10026 1.42684 8.99718 1.68279 8.99919 1.94877V9.98782C8.99919 10.2545 9.10471 10.5102 9.29254 10.6987C9.48037 10.8873 9.73513 10.9932 10.0008 10.9932C10.2664 10.9932 10.5212 10.8873 10.709 10.6987C10.8968 10.5102 11.0023 10.2545 11.0023 9.98782V1.94877C11.0033 1.81515 10.9778 1.68266 10.9272 1.55906C10.8766 1.43546 10.802 1.32323 10.7077 1.22892C10.6134 1.1346 10.5013 1.06011 10.3779 1.00979C10.2546 0.959475 10.1225 0.934339 9.98942 0.935856ZM15.825 2.94656C15.7923 2.94495 15.7595 2.94495 15.7267 2.94656C15.5284 2.96313 15.3395 3.03863 15.1841 3.16344C15.0286 3.28825 14.9138 3.45671 14.8542 3.64732C14.7946 3.83793 14.7929 4.04205 14.8493 4.23363C14.9058 4.42521 15.0178 4.59556 15.1712 4.72294C16.906 6.20074 18.002 8.40042 18.002 10.8685C18.002 15.3283 14.4341 18.9226 10.0045 18.9226C8.95072 18.9206 7.90763 18.7108 6.93502 18.3051C5.96241 17.8994 5.07938 17.3059 4.3365 16.5584C3.59362 15.811 3.00548 14.9243 2.60576 13.9493C2.20603 12.9742 2.00259 11.9298 2.00706 10.876C2.00706 8.41932 3.08801 6.23475 4.80391 4.75318C4.91066 4.66967 4.99944 4.56531 5.06489 4.44641C5.13033 4.3275 5.1711 4.19651 5.18471 4.06135C5.19833 3.9262 5.18451 3.78967 5.1441 3.66002C5.10369 3.53037 5.03752 3.41028 4.94959 3.30702C4.86166 3.20375 4.75379 3.11944 4.63249 3.05918C4.5112 2.99892 4.379 2.96396 4.24387 2.95641C4.10874 2.94887 3.97349 2.96888 3.84629 3.01526C3.71908 3.06164 3.60256 3.13341 3.50376 3.22625C2.40484 4.17322 1.52326 5.34623 0.91925 6.66514C0.315236 7.98406 0.00301473 9.41781 0.00391279 10.8685C0.000881214 13.5283 1.05202 16.0809 2.92713 17.9674C4.80225 19.8538 7.34851 20.9203 10.0083 20.9333C12.6677 20.9213 15.2138 19.8549 17.0879 17.968C18.9621 16.0811 20.0112 13.5279 20.0052 10.8685C20.0052 7.79948 18.6332 5.04042 16.4675 3.19601C16.2895 3.03922 16.0618 2.95084 15.825 2.94656Z" fill="black"/>
</svg>
