<svg width="23" height="23" viewBox="0 0 23 23" fill="none" xmlns="http://www.w3.org/2000/svg">
<path fill-rule="evenodd" clip-rule="evenodd" d="M11.5002 1.5502C10.861 1.5502 10.3429 2.06834 10.3429 2.70751C10.3429 3.34668 10.861 3.86483 11.5002 3.86483C12.1394 3.86483 12.6575 3.34668 12.6575 2.70751C12.6575 2.06834 12.1394 1.5502 11.5002 1.5502ZM13.1348 4.26429C13.5206 3.85928 13.7575 3.31106 13.7575 2.70751C13.7575 1.46083 12.7469 0.450195 11.5002 0.450195C10.2535 0.450195 9.24288 1.46083 9.24288 2.70751C9.24288 3.31106 9.47974 3.85928 9.86558 4.26429C8.73452 4.85461 7.96239 6.03845 7.96239 7.40263V7.61605C7.96239 7.91981 8.20863 8.16605 8.51239 8.16605H9.57946C9.88322 8.16605 10.1295 7.91981 10.1295 7.61605C10.1295 7.31229 9.88322 7.06605 9.57946 7.06605H9.08544C9.24938 5.87897 10.268 4.96483 11.5002 4.96483C12.7324 4.96483 13.751 5.87897 13.915 7.06605H13.4209C13.1172 7.06605 12.8709 7.31229 12.8709 7.61605C12.8709 7.91981 13.1172 8.16605 13.4209 8.16605H14.488C14.7918 8.16605 15.038 7.91981 15.038 7.61605V7.40263C15.038 6.03845 14.2659 4.85461 13.1348 4.26429ZM8.60763 2.32319C8.71541 2.60719 8.57256 2.92478 8.28856 3.03256C4.87283 4.32886 2.44654 7.63185 2.44654 11.5002C2.44654 12.3606 2.56642 13.1922 2.79003 13.9794C2.87303 14.2716 2.70344 14.5758 2.41124 14.6587C2.11904 14.7417 1.81489 14.5722 1.73189 14.28C1.48079 13.3959 1.34654 12.4633 1.34654 11.5002C1.34654 7.16001 4.06942 3.45721 7.89827 2.00413C8.18226 1.89635 8.49985 2.0392 8.60763 2.32319ZM14.3928 2.32319C14.5005 2.0392 14.8181 1.89635 15.1021 2.00413C18.931 3.45721 21.6539 7.16001 21.6539 11.5002C21.6539 12.4633 21.5196 13.3959 21.2685 14.28C21.1855 14.5722 20.8813 14.7417 20.5891 14.6587C20.297 14.5758 20.1274 14.2716 20.2104 13.9794C20.434 13.1922 20.5539 12.3606 20.5539 11.5002C20.5539 7.63185 18.1276 4.32886 14.7118 3.03256C14.4278 2.92478 14.285 2.60719 14.3928 2.32319ZM10.0965 10.0063C10.0965 9.70254 10.3428 9.45629 10.6465 9.45629H12.3539C12.6576 9.45629 12.9039 9.70254 12.9039 10.0063C12.9039 10.6331 13.5823 11.0248 14.1252 10.7114C14.3882 10.5596 14.7246 10.6497 14.8765 10.9128L15.7301 12.3913C15.8031 12.5177 15.8228 12.6678 15.7851 12.8087C15.7473 12.9496 15.6551 13.0697 15.5288 13.1427C14.9861 13.456 14.986 14.2395 15.5288 14.5529C15.7919 14.7048 15.882 15.0412 15.7301 15.3042L14.8765 16.7828C14.8035 16.9091 14.6834 17.0013 14.5425 17.0391C14.4016 17.0768 14.2515 17.057 14.1252 16.9841C13.5824 16.6707 12.9039 17.0624 12.9039 17.6892C12.9039 17.993 12.6576 18.2392 12.3539 18.2392H10.6465C10.3428 18.2392 10.0965 17.993 10.0965 17.6892C10.0965 17.0625 9.41802 16.6707 8.87522 16.9841C8.61216 17.1359 8.27579 17.0458 8.12392 16.7828L7.27026 15.3042C7.19732 15.1778 7.17756 15.0277 7.21531 14.8868C7.25307 14.7459 7.34525 14.6258 7.47158 14.5529C8.01439 14.2395 8.01439 13.456 7.47158 13.1426C7.34525 13.0697 7.25307 12.9495 7.21531 12.8086C7.17756 12.6677 7.19732 12.5176 7.27026 12.3913L8.12392 10.9127C8.19685 10.7864 8.31698 10.6942 8.45788 10.6565C8.59879 10.6187 8.74891 10.6385 8.87524 10.7114C9.41802 11.0248 10.0965 10.6331 10.0965 10.0063ZM11.1182 10.5563C10.8334 11.5212 9.81876 12.107 8.84072 11.8712L8.45871 12.5328C9.15202 13.2619 9.15202 14.4336 8.45871 15.1626L8.84073 15.8243C9.81876 15.5885 10.8334 16.1743 11.1182 17.1392H11.8822C12.167 16.1743 13.1816 15.5885 14.1597 15.8243L14.5417 15.1627C13.8484 14.4336 13.8484 13.2619 14.5417 12.5329L14.1597 11.8712C13.1816 12.107 12.167 11.5212 11.8822 10.5563H11.1182ZM11.5002 13.1173C11.0967 13.1173 10.7697 13.4443 10.7697 13.8478C10.7697 14.2512 11.0967 14.5782 11.5002 14.5782C11.9037 14.5782 12.2307 14.2512 12.2307 13.8478C12.2307 13.4443 11.9037 13.1173 11.5002 13.1173ZM9.66971 13.8478C9.66971 12.8368 10.4892 12.0173 11.5002 12.0173C12.5112 12.0173 13.3307 12.8368 13.3307 13.8478C13.3307 14.8587 12.5112 15.6782 11.5002 15.6782C10.4892 15.6782 9.66971 14.8587 9.66971 13.8478ZM3.988 15.9343C3.34883 15.9343 2.83068 16.4525 2.83068 17.0917C2.83068 17.7308 3.34883 18.249 3.988 18.249C4.62717 18.249 5.14532 17.7308 5.14532 17.0917C5.14532 16.4525 4.62717 15.9343 3.988 15.9343ZM5.62261 18.6484C6.00845 18.2434 6.24532 17.6952 6.24532 17.0917C6.24532 15.845 5.23468 14.8343 3.988 14.8343C2.74132 14.8343 1.73068 15.845 1.73068 17.0917C1.73068 17.6952 1.96755 18.2434 2.35339 18.6484C1.22232 19.2388 0.450195 20.4226 0.450195 21.7868V22.0002C0.450195 22.304 0.696439 22.5502 1.0002 22.5502H6.97581C7.27956 22.5502 7.52581 22.304 7.52581 22.0002V21.7868C7.52581 20.4226 6.75368 19.2388 5.62261 18.6484ZM3.988 19.349C2.75583 19.349 1.73718 20.2631 1.57324 21.4502H6.40276C6.23882 20.2631 5.22017 19.349 3.988 19.349ZM19.0124 15.9343C18.3732 15.9343 17.8551 16.4525 17.8551 17.0917C17.8551 17.7308 18.3732 18.249 19.0124 18.249C19.6516 18.249 20.1697 17.7308 20.1697 17.0917C20.1697 16.4525 19.6516 15.9343 19.0124 15.9343ZM20.647 18.6484C21.0328 18.2434 21.2697 17.6952 21.2697 17.0917C21.2697 15.845 20.2591 14.8343 19.0124 14.8343C17.7657 14.8343 16.7551 15.845 16.7551 17.0917C16.7551 17.6952 16.9919 18.2434 17.3778 18.6484C16.2467 19.2388 15.4746 20.4226 15.4746 21.7868V22.0002C15.4746 22.304 15.7208 22.5502 16.0246 22.5502H22.0002C22.304 22.5502 22.5502 22.304 22.5502 22.0002V21.7868C22.5502 20.4226 21.7781 19.2388 20.647 18.6484ZM19.0124 19.349C17.7802 19.349 16.7616 20.2631 16.5976 21.4502H21.4271C21.2632 20.2631 20.2446 19.349 19.0124 19.349ZM8.12203 20.5098C8.21215 20.2197 8.52036 20.0576 8.81044 20.1477C9.65952 20.4115 10.5627 20.5539 11.5002 20.5539C12.4377 20.5539 13.3409 20.4115 14.1899 20.1477C14.48 20.0576 14.7882 20.2197 14.8784 20.5098C14.9685 20.7999 14.8064 21.1081 14.5163 21.1982C13.5628 21.4944 12.5496 21.6539 11.5002 21.6539C10.4508 21.6539 9.4376 21.4944 8.4841 21.1982C8.19401 21.1081 8.03191 20.7999 8.12203 20.5098Z" fill="black"/>
</svg>
