<svg width="29" height="141" viewBox="0 0 29 141" fill="none" xmlns="http://www.w3.org/2000/svg">
<path d="M7.88672 7.46303L14.1865 0.62793L20.4864 7.46303H7.88672Z" fill="#C01824"/>
<path d="M7.88672 45.2861L14.1865 52.1006L20.4864 45.2861H7.88672Z" fill="#C01824"/>
<path d="M21.0404 18.9102V33.8362H18.1993L10.7466 24.7776V33.8362H7.34961V18.9102H10.1495L17.5817 27.9687V18.9102H21.0404Z" fill="black"/>
<path d="M28.3698 26.3643C28.3697 23.5553 27.5357 20.8096 25.9734 18.4751C24.411 16.1407 22.1908 14.3227 19.594 13.2515C16.9973 12.1804 14.141 11.9043 11.3871 12.4583C8.63331 13.0124 6.10598 14.3716 4.12551 16.3636C2.14503 18.3556 0.800591 20.8908 0.262599 23.6478C-0.275393 26.4048 0.0172911 29.2595 1.10355 31.85C2.18981 34.4404 4.02073 36.6501 6.36423 38.1988C8.70774 39.7475 11.4583 40.5655 14.2673 40.5492C18.0167 40.5329 21.6067 39.0305 24.2503 36.3715C26.8939 33.7125 28.3753 30.1138 28.3698 26.3643Z" fill="white"/>
<path d="M28 84.9998C27.9999 82.2274 27.1768 79.5174 25.6348 77.2134C24.0928 74.9094 21.9015 73.1151 19.3386 72.0579C16.7757 71.0007 13.9566 70.7282 11.2387 71.275C8.52077 71.8218 6.02639 73.1633 4.07173 75.1294C2.11707 77.0954 0.790155 79.5976 0.259176 82.3187C-0.271803 85.0397 0.0170657 87.8572 1.08917 90.4139C2.16127 92.9706 3.96832 95.1514 6.28128 96.68C8.59423 98.2085 11.3089 99.0159 14.0813 98.9998C17.7819 98.9836 21.3251 97.5009 23.9342 94.8765C26.5433 92.2522 28.0054 88.7004 28 84.9998Z" fill="white"/>
<path d="M20.7129 80.7275H20.0879V89.1788C20.0879 89.4727 19.991 89.7483 19.8129 89.9578L17.3129 92.8973C17.1348 93.1068 16.9004 93.2207 16.6504 93.2207H8.21289V93.9556C8.21289 94.5618 8.63477 95.0579 9.15039 95.0579H20.7129C21.2285 95.0579 21.6504 94.5618 21.6504 93.9556V81.8299C21.6504 81.2236 21.2285 80.7275 20.7129 80.7275Z" fill="black"/>
<path d="M16.3379 89.9133C16.3379 89.307 16.7598 88.811 17.2754 88.811H19.4629V79.2511C19.4629 78.6449 19.041 78.1488 18.5254 78.1488H13.0223L13.6513 79.9655C13.7991 80.4159 13.2348 80.6853 13.0732 80.2425L11.8629 76.7562C12.5595 76.1536 12.3223 74.7316 11.4401 74.5093C9.82852 74.169 9.57789 76.955 11.1816 77.0465C11.216 77.0465 11.2504 77.0391 11.2848 77.0354L11.6691 78.1488H6.96289C6.44727 78.1488 6.02539 78.6449 6.02539 79.2511V91.3831C6.02539 91.9894 6.44727 92.4854 6.96289 92.4854H16.3379V89.9133ZM11.3379 82.7481H16.6504C17.0591 82.7569 17.0623 83.4735 16.6504 83.483H11.3379C10.9291 83.4742 10.926 82.7577 11.3379 82.7481ZM9.15039 84.9528H16.6504C17.0585 84.9612 17.0629 85.6781 16.6504 85.6877H9.15039C8.74227 85.6792 8.73789 84.9623 9.15039 84.9528ZM9.15039 87.1575H16.6504C17.0585 87.1659 17.0629 87.8828 16.6504 87.8923H9.15039C8.74227 87.8839 8.73789 87.167 9.15039 87.1575Z" fill="black"/>
<path d="M16.9629 89.9133V92.2701L19.2798 89.5459H17.2754C17.1029 89.5459 16.9629 89.7109 16.9629 89.9133Z" fill="black"/>
<path d="M28 127C27.9999 124.227 27.1768 121.517 25.6348 119.213C24.0928 116.909 21.9015 115.115 19.3386 114.058C16.7757 113.001 13.9566 112.728 11.2387 113.275C8.52077 113.822 6.02639 115.163 4.07173 117.129C2.11707 119.095 0.790155 121.598 0.259176 124.319C-0.271803 127.04 0.0170657 129.857 1.08917 132.414C2.16127 134.971 3.96832 137.151 6.28128 138.68C8.59423 140.208 11.3089 141.016 14.0813 141C17.7819 140.984 21.3251 139.501 23.9342 136.877C26.5433 134.252 28.0054 130.7 28 127Z" fill="white"/>
<g clip-path="url(#clip0_907_4327)">
<path d="M20.9096 119.929C17.0043 116.024 10.6724 116.024 6.7667 119.929C2.8614 123.834 2.86184 130.166 6.7667 134.072C10.672 137.976 17.0039 137.977 20.9096 134.072C24.8145 130.166 24.8141 123.835 20.9096 119.929ZM15.1421 131.348C15.1421 131.694 15.0047 132.026 14.7601 132.271C14.5154 132.515 14.1837 132.653 13.8377 132.653C13.4918 132.653 13.16 132.515 12.9154 132.271C12.6708 132.026 12.5334 131.694 12.5334 131.348V126.131C12.5334 125.785 12.6708 125.453 12.9154 125.208C13.16 124.964 13.4918 124.826 13.8377 124.826C14.1837 124.826 14.5154 124.964 14.7601 125.208C15.0047 125.453 15.1421 125.785 15.1421 126.131V131.348ZM13.8147 123.901C13.0634 123.901 12.5625 123.369 12.5781 122.712C12.5625 122.023 13.0634 121.507 13.8299 121.507C14.5969 121.507 15.0821 122.024 15.0982 122.712C15.0978 123.369 14.5973 123.901 13.8147 123.901Z" fill="black"/>
</g>
<path d="M20.6908 19V33.926H17.8497L10.397 24.8675V33.926H7V19H9.79992L17.2321 28.0586V19H20.6908Z" fill="black"/>
<defs>
<clipPath id="clip0_907_4327">
<rect width="20" height="20" fill="white" transform="translate(3.83789 117)"/>
</clipPath>
</defs>
</svg>
