<svg width="23" height="24" viewBox="0 0 23 24" fill="none" xmlns="http://www.w3.org/2000/svg">
<path d="M21.011 7.58432C21.011 8.20778 20.5008 8.71788 19.8774 8.71788H3.25173C2.62827 8.71788 2.11816 8.20778 2.11816 7.58432V7.57487C2.11816 5.41165 3.86575 3.66406 6.02897 3.66406L17.0907 3.66406C19.2539 3.66406 21.011 5.42109 21.011 7.58432Z" fill="white"/>
<path d="M2.11816 11.2703V16.0029C2.11816 18.1662 3.86575 19.9137 6.02897 19.9137H17.0907C19.2539 19.9137 21.011 18.1567 21.011 15.9935V11.2703C21.011 10.6468 20.5008 10.1367 19.8774 10.1367H3.25173C2.62827 10.1367 2.11816 10.6468 2.11816 11.2703ZM7.786 16.7492H5.89672C5.50942 16.7492 5.18824 16.428 5.18824 16.0407C5.18824 15.6534 5.50942 15.3322 5.89672 15.3322H7.786C8.1733 15.3322 8.49448 15.6534 8.49448 16.0407C8.49448 16.428 8.1733 16.7492 7.786 16.7492ZM13.9262 16.7492H10.1476C9.7603 16.7492 9.43912 16.428 9.43912 16.0407C9.43912 15.6534 9.7603 15.3322 10.1476 15.3322H13.9262C14.3135 15.3322 14.6346 15.6534 14.6346 16.0407C14.6346 16.428 14.3135 16.7492 13.9262 16.7492Z" fill="white"/>
</svg>
