<svg width="25" height="26" viewBox="0 0 25 26" fill="none" xmlns="http://www.w3.org/2000/svg">
<path d="M12.705 3.04932L10.2531 8.75688H7.80119C7.39423 8.75688 6.99745 8.7874 6.61084 8.86879L7.62823 6.42706L7.66893 6.33549L7.72997 6.17271C7.76049 6.10149 7.78084 6.04045 7.81136 5.98958C8.99154 3.25279 10.3141 2.39819 12.705 3.04932Z" fill="white"/>
<path d="M19.6133 9.03015L19.593 9.01998C18.9826 8.84702 18.362 8.75546 17.7312 8.75546H11.3623L13.6514 3.4345L13.682 3.36328C13.8244 3.41415 13.977 3.48537 14.1296 3.53624L16.378 4.48241C17.6294 5.00128 18.5044 5.5405 19.0436 6.19163C19.1352 6.31372 19.2166 6.42563 19.298 6.55789C19.3895 6.70032 19.4607 6.84276 19.5014 6.99537C19.5421 7.08693 19.5727 7.16832 19.593 7.25989C19.7456 7.77876 19.7558 8.36885 19.6133 9.03015Z" fill="white"/>
<path d="M13.2932 18.7672H13.5476C13.8528 18.7672 14.1071 18.4925 14.1071 18.1568C14.1071 17.7295 13.985 17.6684 13.7205 17.5667L13.2932 17.4141V18.7672Z" fill="white"/>
<path d="M19.1646 10.4847C18.7068 10.3525 18.2286 10.2812 17.7301 10.2812H7.80032C7.10849 10.2812 6.45736 10.4135 5.84693 10.678C4.07667 11.4411 2.83545 13.2012 2.83545 15.2461V17.23C2.83545 17.4742 2.8558 17.7082 2.88632 17.9524C3.11014 21.1877 4.83971 22.9172 8.07501 23.1309C8.30901 23.1614 8.54301 23.1818 8.79736 23.1818H16.733C20.4974 23.1818 22.4813 21.3912 22.6746 17.8303C22.6848 17.637 22.6949 17.4335 22.6949 17.23V15.2461C22.6949 12.9977 21.1994 11.1053 19.1646 10.4847ZM14.0674 16.5687C14.5354 16.7315 15.1662 17.0774 15.1662 18.1559C15.1662 19.0817 14.4439 19.8244 13.5486 19.8244H13.2942V20.0482C13.2942 20.3432 13.0602 20.5772 12.7652 20.5772C12.4701 20.5772 12.2361 20.3432 12.2361 20.0482V19.8244H12.1446C11.1679 19.8244 10.3641 19.0003 10.3641 17.9829C10.3641 17.6879 10.5981 17.4539 10.8932 17.4539C11.1882 17.4539 11.4222 17.6879 11.4222 17.9829C11.4222 18.4102 11.7478 18.7663 12.1446 18.7663H12.2361V17.0469L11.4629 16.7722C10.9949 16.6094 10.3641 16.2635 10.3641 15.1851C10.3641 14.2593 11.0865 13.5166 11.9818 13.5166H12.2361V13.2927C12.2361 12.9977 12.4701 12.7637 12.7652 12.7637C13.0602 12.7637 13.2942 12.9977 13.2942 13.2927V13.5166H13.3858C14.3625 13.5166 15.1662 14.3406 15.1662 15.358C15.1662 15.6531 14.9322 15.8871 14.6372 15.8871C14.3421 15.8871 14.1081 15.6531 14.1081 15.358C14.1081 14.9307 13.7826 14.5746 13.3858 14.5746H13.2942V16.294L14.0674 16.5687Z" fill="white"/>
<path d="M11.4221 15.1847C11.4221 15.612 11.5442 15.673 11.8087 15.7747L12.236 15.9273V14.5742H11.9817C11.6663 14.5742 11.4221 14.8489 11.4221 15.1847Z" fill="white"/>
</svg>
