<svg width="31" height="29" viewBox="0 0 31 29" fill="none" xmlns="http://www.w3.org/2000/svg">
<path d="M8.80516 9.7158C11.4881 9.7158 13.6631 7.54084 13.6631 4.8579C13.6631 2.17496 11.4881 0 8.80516 0C6.12222 0 3.94727 2.17496 3.94727 4.8579C3.94727 7.54084 6.12222 9.7158 8.80516 9.7158Z" fill="#C01824"/>
<path d="M22.2423 12.8992C17.8033 12.8992 14.1919 16.5106 14.1919 20.9495C14.1919 25.3884 17.8033 28.9998 22.2423 28.9998C26.6813 28.9998 30.2926 25.3885 30.2926 20.9495C30.2926 16.5105 26.6813 12.8992 22.2423 12.8992ZM27.2216 22.1639H23.4568V25.9288H21.0278V22.1639H17.263V19.735H21.0278V15.9701H23.4568V19.735H27.2216V22.1639ZM8.80494 12.1445C3.9421 12.1445 0 16.0866 0 20.9495H11.763C11.763 18.3291 12.7298 15.9304 14.3253 14.091C12.8152 12.8739 10.8955 12.1445 8.80494 12.1445Z" fill="#C01824"/>
</svg>
