<svg width="34" height="31" viewBox="0 0 34 31" fill="none" xmlns="http://www.w3.org/2000/svg">
<path d="M30.5205 0.0732422H4.1327C3.258 0.0732422 2.41894 0.420759 1.80023 1.03924C1.18177 1.65797 0.834229 2.49708 0.834229 3.37172V27.3606C0.834229 28.2353 1.18175 29.0744 1.80023 29.6931C2.41896 30.3116 3.25807 30.6591 4.1327 30.6591H30.5205C31.3952 30.6591 32.2343 30.3116 32.853 29.6931C33.4714 29.0744 33.819 28.2353 33.819 27.3606V3.37172C33.819 2.49701 33.4715 1.65795 32.853 1.03924C32.2343 0.42078 31.3951 0.0732422 30.5205 0.0732422ZM2.63305 3.37172C2.63305 2.97413 2.79102 2.59263 3.07213 2.31148C3.35325 2.03033 3.73478 1.8724 4.13237 1.8724H30.5202C30.9178 1.8724 31.2993 2.03036 31.5804 2.31148C31.8616 2.59259 32.0195 2.97412 32.0195 3.37172V7.26991H2.63308L2.63305 3.37172ZM32.0195 27.3606C32.0195 27.7582 31.8615 28.1397 31.5804 28.4209C31.2993 28.702 30.9177 28.8599 30.5202 28.8599H4.13235C3.73476 28.8599 3.35326 28.702 3.07211 28.4209C2.79096 28.1398 2.63303 27.7582 2.63303 27.3606V9.06874H32.0194L32.0195 27.3606ZM5.63167 23.6303C5.63167 24.222 5.86674 24.7896 6.28521 25.2078C6.70341 25.6263 7.27102 25.8613 7.86272 25.8613H14.5317C15.1234 25.8613 15.6907 25.6263 16.1092 25.2078C16.5274 24.7896 16.7625 24.222 16.7625 23.6303C16.7595 22.7428 16.5143 21.8726 16.0535 21.1138C15.5927 20.3554 14.9338 19.7366 14.1478 19.3243C14.9681 18.5329 15.4315 17.4416 15.4313 16.3016C15.4313 14.7889 14.6241 13.3913 13.314 12.635C12.004 11.8787 10.3901 11.8787 9.08014 12.635C7.77014 13.3913 6.96315 14.7889 6.96315 16.3016C6.96288 17.4416 7.42606 18.5329 8.24642 19.3243C7.46034 19.7366 6.80146 20.3554 6.34067 21.1138C5.8799 21.8726 5.63489 22.7428 5.63167 23.6303ZM11.197 13.8668C11.8334 13.8668 12.4436 14.1195 12.8934 14.5693C13.3432 15.0194 13.5959 15.6296 13.5959 16.2657C13.5959 16.9018 13.3432 17.512 12.8934 17.962C12.4436 18.4118 11.8334 18.6646 11.197 18.6646C10.5609 18.6646 9.9507 18.4118 9.50094 17.962C9.05088 17.512 8.79814 16.9018 8.79814 16.2657C8.79814 15.6296 9.05088 15.0194 9.50094 14.5693C9.95073 14.1195 10.5609 13.8668 11.197 13.8668ZM10.5253 20.5358H11.8567C12.6733 20.5419 13.4543 20.871 14.0294 21.4507C14.6047 22.0303 14.9274 22.8137 14.9274 23.6303C14.9274 23.8688 14.7341 24.0621 14.4955 24.0621H7.86273C7.62418 24.0621 7.43088 23.8688 7.43088 23.6303C7.43088 22.8097 7.75698 22.0225 8.33718 21.4421C8.91763 20.8619 9.70466 20.5358 10.5253 20.5358ZM7.43071 4.57096C7.42429 5.06519 7.02536 5.4641 6.53113 5.47054H5.33168C4.83477 5.47054 4.4321 5.06787 4.4321 4.57096C4.4321 4.07404 4.83477 3.67137 5.33168 3.67137H6.53113C7.02536 3.6778 7.42427 4.07672 7.43071 4.57096ZM12.2285 4.57096C12.2221 5.06519 11.8231 5.4641 11.3289 5.47054H10.1295C9.63255 5.47054 9.22988 5.06787 9.22988 4.57096C9.22988 4.07404 9.63255 3.67137 10.1295 3.67137H11.3289C11.8231 3.6778 12.2221 4.07672 12.2285 4.57096ZM17.0263 4.57096C17.0199 5.06519 16.6209 5.4641 16.1267 5.47054H14.9272C14.4303 5.47054 14.0277 5.06787 14.0277 4.57096C14.0277 4.07404 14.4303 3.67137 14.9272 3.67137H16.1267C16.6209 3.6778 17.0198 4.07672 17.0263 4.57096Z" fill="#C01824"/>
<path d="M20.289 18.3289C19.938 18.6799 19.9378 19.2494 20.2887 19.6004L22.6879 21.9991C23.0389 22.3501 23.6081 22.3501 23.9591 21.9991C24.3101 21.6481 24.3104 21.0789 23.9594 20.7279L23.0957 19.8642H28.1213C28.6182 19.8642 29.0209 19.4615 29.0209 18.9646C29.0209 18.4677 28.6182 18.065 28.1213 18.065H23.0954L23.9591 17.2013C24.2895 16.8471 24.2799 16.2944 23.9372 15.952C23.5947 15.6093 23.0421 15.5997 22.6879 15.93L20.289 18.3289Z" fill="#C01824"/>
</svg>
