<svg width="21" height="21" viewBox="0 0 21 21" fill="none" xmlns="http://www.w3.org/2000/svg">
<g clip-path="url(#clip0_5027_1210)">
<path d="M11.6941 14.3152C14.6209 14.4728 16.8333 15.1996 16.8333 16.0723C16.8333 17.0603 13.9981 17.8612 10.5009 17.8612C7.00354 17.8612 4.16846 17.0603 4.16846 16.0723C4.16846 15.1996 6.38076 14.4728 9.30755 14.3152" stroke="black" stroke-width="1.23047" stroke-miterlimit="10" stroke-linecap="round" stroke-linejoin="round"/>
<path d="M2.08745 15.2627C1.15434 15.7753 0.615234 16.3794 0.615234 17.0264C0.615234 18.8812 5.04082 20.3848 10.5 20.3848C15.9592 20.3848 20.3848 18.8812 20.3848 17.0264C20.3848 16.3794 19.8457 15.7753 18.9126 15.2627" stroke="black" stroke-width="1.23047" stroke-miterlimit="10" stroke-linecap="round" stroke-linejoin="round"/>
<path d="M10.4995 7.01016C9.56975 7.01016 8.81601 6.25642 8.81601 5.32667C8.81601 4.39689 9.56975 3.64315 10.4995 3.64315C11.4293 3.64315 12.1831 4.39689 12.1831 5.32667C12.1831 6.25642 11.4293 7.01016 10.4995 7.01016ZM10.4995 0.615373C7.68065 0.615373 5.39551 2.90048 5.39551 5.71928C5.39551 7.67658 8.25528 12.6016 9.69358 14.9548C10.0621 15.5577 10.937 15.5577 11.3055 14.9548C12.7438 12.6016 15.6036 7.67658 15.6036 5.71928C15.6036 2.90048 13.3184 0.615373 10.4995 0.615373Z" stroke="black" stroke-width="1.23047" stroke-miterlimit="10" stroke-linecap="round" stroke-linejoin="round"/>
</g>
<defs>
<clipPath id="clip0_5027_1210">
<rect width="21" height="21" fill="white"/>
</clipPath>
</defs>
</svg>
