<svg width="24" height="25" viewBox="0 0 24 25" fill="none" xmlns="http://www.w3.org/2000/svg">
<g clip-path="url(#clip0_2353_3294)">
<path d="M11.4532 17.5028C8.69619 17.5028 6.45312 15.2597 6.45312 12.5027C6.45312 9.74575 8.69619 7.50269 11.4532 7.50269C14.21 7.50269 16.4531 9.74575 16.4531 12.5027C16.4531 15.2597 14.2101 17.5028 11.4532 17.5028ZM11.4532 9.00269C9.52311 9.00269 7.95312 10.5728 7.95312 12.5027C7.95312 14.4327 9.52311 16.0028 11.4532 16.0028C13.3831 16.0028 14.9531 14.4327 14.9531 12.5027C14.9531 10.5728 13.3831 9.00269 11.4532 9.00269Z" fill="black"/>
<path d="M13.1163 24.5027H9.79018C8.99021 24.5027 8.28325 23.9347 8.10925 23.1517L7.68831 21.2797C7.0022 20.9887 6.34815 20.6088 5.73423 20.1448L3.91121 20.7206C3.12915 20.9636 2.27921 20.6317 1.88715 19.9316L0.229323 17.0647C-0.167848 16.3547 -0.033786 15.4807 0.550323 14.9307L1.96314 13.6317C1.92029 13.2507 1.89925 12.8728 1.89925 12.5027C1.89925 12.1326 1.92034 11.7547 1.96225 11.3737L0.557261 10.0807C-0.0338328 9.52467 -0.168739 8.65069 0.224214 7.94981L1.89231 5.06475C2.27921 4.37264 3.13121 4.04376 3.90826 4.28273L5.73423 4.85967C6.34815 4.3957 7.0022 4.01573 7.68831 3.72459L8.11018 1.85072C8.28325 1.07072 8.99021 0.502686 9.79018 0.502686H13.1163C13.9163 0.502686 14.6232 1.07067 14.7972 1.85362L15.2182 3.72572C15.9043 4.01667 16.5583 4.39659 17.1722 4.86056L18.9952 4.28475C19.7793 4.04376 20.6273 4.37372 21.0193 5.07375L22.6773 7.94062C23.0743 8.65069 22.9403 9.52467 22.3562 10.0747L20.9433 11.3737C20.9852 11.7547 21.0063 12.1337 21.0063 12.5027C21.0063 12.8716 20.9852 13.2507 20.9433 13.6317L22.3492 14.9237C22.3512 14.9257 22.3532 14.9277 22.3562 14.9298C22.6401 15.1966 22.8265 15.5508 22.8856 15.936C22.9448 16.3211 22.8732 16.715 22.6823 17.0547L21.0142 19.9397C20.6273 20.6317 19.7773 20.9627 18.9973 20.7206L17.1712 20.1437C16.5572 20.6077 15.9032 20.9876 15.2172 21.2788L14.7952 23.1526C14.6232 23.9347 13.9163 24.5027 13.1163 24.5027ZM5.88728 18.5617C6.05921 18.5617 6.22825 18.6206 6.36428 18.7327C7.05128 19.2977 7.8002 19.7337 8.59318 20.0257C8.7106 20.069 8.81532 20.141 8.89778 20.2351C8.98024 20.3293 9.03782 20.4425 9.06526 20.5646L9.57432 22.8247C9.5972 22.9287 9.68823 23.0027 9.79126 23.0027H13.1172C13.2203 23.0027 13.3113 22.9287 13.3333 22.8267L13.8432 20.5646C13.8707 20.4425 13.9282 20.3293 14.0107 20.2351C14.0931 20.141 14.1978 20.069 14.3153 20.0257C15.1072 19.7337 15.8572 19.2977 16.5442 18.7327C16.6405 18.6528 16.7554 18.5984 16.8783 18.5745C17.0011 18.5505 17.128 18.5578 17.2473 18.5957L19.4483 19.2908C19.5532 19.3237 19.6652 19.2847 19.7132 19.1987L21.3813 16.3137C21.4313 16.2247 21.4132 16.1027 21.3333 16.0247L19.6453 14.4727C19.555 14.3897 19.4865 14.2859 19.4457 14.1703C19.4049 14.0547 19.3931 13.9309 19.4113 13.8097C19.4772 13.3667 19.5103 12.9268 19.5103 12.5017C19.5103 12.0766 19.4772 11.6366 19.4113 11.1937C19.3932 11.0724 19.405 10.9486 19.4458 10.8331C19.4866 10.7175 19.5551 10.6137 19.6453 10.5307L21.3372 8.97459C21.4132 8.90376 21.4313 8.77959 21.3762 8.68069L19.7182 5.81367C19.6643 5.71861 19.5503 5.68073 19.4462 5.71369L17.2483 6.40767C17.0062 6.48473 16.7423 6.43275 16.5453 6.2707C15.8583 5.70562 15.1092 5.26964 14.3162 4.97761C14.1988 4.93436 14.0941 4.86239 14.0116 4.76825C13.9292 4.67412 13.8717 4.56083 13.8443 4.43873L13.3352 2.17865C13.3102 2.07665 13.2192 2.00269 13.1163 2.00269H9.79018C9.68729 2.00269 9.59626 2.07665 9.57428 2.17865L9.06418 4.44075C9.03664 4.56277 8.97905 4.67598 8.89664 4.77009C8.81423 4.8642 8.70961 4.93622 8.59229 4.97962C7.8002 5.27165 7.0502 5.70764 6.36428 6.27272C6.16726 6.43476 5.9012 6.48567 5.66134 6.40969L3.46023 5.71458C3.35734 5.6827 3.24324 5.72067 3.19529 5.80669L1.5272 8.69062C1.47718 8.78072 1.49532 8.90465 1.57829 8.98265L3.26429 10.5317C3.35452 10.6147 3.42304 10.7185 3.46383 10.8341C3.50462 10.9497 3.51646 11.0736 3.49829 11.1948C3.4322 11.6377 3.39925 12.0777 3.39925 12.5027C3.39925 12.9277 3.4322 13.3677 3.49829 13.8106C3.53532 14.0567 3.4472 14.3047 3.26429 14.4736L1.57225 16.0297C1.49621 16.1007 1.47831 16.2247 1.5332 16.3237L3.19126 19.1906C3.24414 19.2856 3.35823 19.3226 3.46314 19.2908L5.66134 18.5966C5.73531 18.5727 5.81134 18.5617 5.88728 18.5617Z" fill="black"/>
</g>
<defs>
<clipPath id="clip0_2353_3294">
<rect width="24" height="24" fill="white" transform="translate(0.000976562 0.502686)"/>
</clipPath>
</defs>
</svg>
