<svg width="79" height="74" viewBox="0 0 79 74" fill="none" xmlns="http://www.w3.org/2000/svg">
<path d="M0.521521 37.6173C0.521521 35.6301 0.682143 33.6054 1.04357 31.5806C3.69401 16.2452 17.0265 3.75939 33.4512 1.28472C54.5744 -1.90235 74.4928 10.8084 78.7495 30.2683C79.0708 31.8056 78.0267 33.2679 76.4204 33.6054C74.7739 33.9053 73.2077 32.9305 72.8463 31.4307C69.2321 14.9704 52.3657 4.17183 34.415 6.90896C20.5203 9.00868 9.23583 19.5448 6.98698 32.518C4.09559 49.3532 15.7013 65.0636 33.411 68.4007C35.0575 68.7006 36.1016 70.2004 35.7803 71.7002C35.4591 73.2375 33.8528 74.2124 32.2464 73.9124C13.4926 70.3504 0.52152 55.0525 0.521521 37.6173Z" fill="#27AE60"/>
<path d="M37.5785 49.7981C36.6076 49.7981 35.6853 49.4355 35.0057 48.801L27.3358 41.6851C25.9281 40.3707 25.8795 38.1951 27.3358 36.8807C28.7436 35.5663 31.0737 35.521 32.4814 36.8807L37.3843 41.4131L51.4619 26.0483C52.7726 24.5979 55.0541 24.4619 56.6075 25.6857C58.1123 26.9094 58.3065 29.0397 56.9958 30.49L40.394 48.6197C39.7144 49.3449 38.7921 49.7528 37.7726 49.7981C37.6756 49.7981 37.627 49.7981 37.5785 49.7981Z" fill="#27AE60"/>
</svg>
