<svg width="22" height="22" viewBox="0 0 22 22" fill="none" xmlns="http://www.w3.org/2000/svg">
<path fill-rule="evenodd" clip-rule="evenodd" d="M4.01562 1.625C4.01562 1.08134 4.45634 0.640625 5 0.640625H5.9375C6.48116 0.640625 6.92188 1.08134 6.92188 1.625V2.51562H15.0781V1.625C15.0781 1.08134 15.5188 0.640625 16.0625 0.640625H17C17.5437 0.640625 17.9844 1.08134 17.9844 1.625V2.51562H18.9688C20.2891 2.51562 21.3594 3.58597 21.3594 4.90625V18.9688C21.3594 20.2891 20.2891 21.3594 18.9688 21.3594H3.03125C1.71097 21.3594 0.640625 20.2891 0.640625 18.9688V4.90625C0.640625 3.58597 1.71097 2.51562 3.03125 2.51562H4.01562V1.625ZM17.9844 3.54688V4.4375C17.9844 4.98116 17.5437 5.42188 17 5.42188H16.0625C15.5188 5.42188 15.0781 4.98116 15.0781 4.4375V3.54688H6.92188V4.4375C6.92188 4.98116 6.48116 5.42188 5.9375 5.42188H5C4.45634 5.42188 4.01562 4.98116 4.01562 4.4375V3.54688H3.03125C2.2805 3.54688 1.67188 4.1555 1.67188 4.90625V5.89062H20.3281V4.90625C20.3281 4.1555 19.7195 3.54688 18.9688 3.54688H17.9844ZM5.04688 1.67188V4.39062H5.89062V1.67188H5.04688ZM1.67188 6.92188V18.9688C1.67188 19.7195 2.2805 20.3281 3.03125 20.3281H18.9688C19.7195 20.3281 20.3281 19.7195 20.3281 18.9688V6.92188H1.67188ZM16.1094 4.39062V1.67188H16.9531V4.39062H16.1094Z" fill="black"/>
<path d="M18.0555 10.6768C17.5923 9.76918 16.6498 9.14531 15.5628 9.14531H5.18949C4.48894 9.14531 3.91875 9.71551 3.91875 10.4161V15.6027C3.91875 16.3032 4.48894 16.8734 5.18949 16.8734H6.00046C6.16227 17.5904 6.80452 18.1278 7.56995 18.1278C8.33549 18.1278 8.97617 17.5903 9.13935 16.8734H13.1449C13.3067 17.5904 13.9489 18.1278 14.7144 18.1278C15.4799 18.1278 16.1206 17.5903 16.2838 16.8734H17.0918C17.7923 16.8734 18.3625 16.3032 18.3625 15.6027V11.9466C18.3625 11.5216 18.265 11.1199 18.0948 10.7586C18.0848 10.7309 18.0718 10.7032 18.0555 10.6768ZM15.8905 11.2305H17.5225C17.6047 11.4544 17.6521 11.6952 17.6521 11.9481V12.9632H15.8905V11.2305ZM7.56842 17.4174C7.07269 17.4174 6.67082 17.0141 6.67082 16.5198C6.67082 16.0241 7.07411 15.6222 7.56842 15.6222C8.0642 15.6222 8.46755 16.0255 8.46755 16.5213C8.46755 17.0139 8.06431 17.4174 7.56842 17.4174ZM14.7128 17.4174C14.217 17.4174 13.8137 17.014 13.8137 16.5183C13.8137 16.0225 14.217 15.6191 14.7128 15.6191C15.2085 15.6191 15.6104 16.0223 15.612 16.5167C15.6104 17.0157 15.207 17.4174 14.7128 17.4174ZM17.0918 16.1646H16.2808C16.119 15.4476 15.4767 14.9103 14.7113 14.9103C13.9458 14.9103 13.3051 15.4477 13.1419 16.1646H9.1379C8.97609 15.4476 8.33385 14.9103 7.56842 14.9103C6.80288 14.9103 6.16219 15.4477 5.99902 16.1646H5.18949C4.87988 16.1646 4.62912 15.9138 4.62912 15.6042V10.4176C4.62912 10.108 4.87988 9.85721 5.18949 9.85721H15.5612C16.1624 9.85721 16.7033 10.1129 17.0855 10.5202H5.64727C5.45181 10.5202 5.29209 10.6799 5.29209 10.8754V13.3184C5.29209 13.5138 5.45181 13.6736 5.64727 13.6736H17.6521V14.5639H16.9575C16.762 14.5639 16.6023 14.7236 16.6023 14.9191C16.6023 15.1145 16.762 15.2743 16.9575 15.2743H17.6521V15.6042C17.6521 15.9124 17.4013 16.1646 17.0918 16.1646ZM13.4185 11.2305H15.1801V12.9632H13.4185V11.2305ZM10.9465 11.2305H12.7081V12.9632H10.9465V11.2305ZM8.47447 11.2305H10.2361V12.9632H8.47447V11.2305ZM6.00246 12.9632V11.2305H7.7641V12.9632H6.00246Z" fill="black" stroke="black" stroke-width="0.1"/>
</svg>
