<svg width="49" height="49" viewBox="0 0 49 49" fill="none" xmlns="http://www.w3.org/2000/svg">
<path d="M37.8863 11.8208L32.5835 6.91859C31.6223 6.00542 30.3567 5.50879 29.027 5.50879H14.144C11.2603 5.50879 8.90527 7.86379 8.90527 10.7475V38.7192C8.90527 41.6029 11.2603 43.9579 14.144 43.9579H34.3137C37.1974 43.9579 39.5524 41.6029 39.5524 38.7192V15.6658C39.5524 14.2079 38.9436 12.8141 37.8863 11.8208ZM18.9982 18.6776C23.3285 14.3457 23.1795 14.4754 23.3397 14.3681C23.5999 14.192 23.9066 14.0972 24.2208 14.0957H24.2368C24.6534 14.0957 25.0539 14.272 25.3583 14.5603L29.4595 18.6776C29.7591 18.9771 29.9273 19.3834 29.9273 19.807C29.9273 20.2307 29.7591 20.6369 29.4595 20.9365C29.16 21.236 28.7537 21.4043 28.3301 21.4043C27.9064 21.4043 27.5002 21.236 27.2006 20.9365L25.8389 19.5747V25.23C25.8389 26.1271 25.118 26.832 24.2368 26.832C23.3397 26.832 22.6348 26.1271 22.6348 25.23V19.5747L21.257 20.9525C20.9563 21.2497 20.5505 21.4164 20.1276 21.4164C19.7047 21.4164 19.2989 21.2497 18.9982 20.9525C18.3734 20.3277 18.3734 19.3024 18.9982 18.6776ZM30.4368 35.3709H18.0209C17.1398 35.3709 16.4189 34.65 16.4189 33.7689C16.4189 32.8877 17.1398 32.1668 18.0209 32.1668H30.4368C31.3179 32.1668 32.0388 32.8877 32.0388 33.7689C32.0388 34.65 31.3179 35.3709 30.4368 35.3709Z" fill="#C01824"/>
</svg>
